# xmcd
#
# Track frame offsets: 
#        150
#        23219
#        45489
#        77537
#        94907
#        116472
#        139037
#        155371
#        174493
#        195518
#        221387
#        245303
#        298206
#
# Disc length: 4173 seconds
#
# Revision: 0
# Processed by: cddbd v1.5.2PL0 Copyright (c) Steve Scherf et al.
# Submitted via: ExactAudioCopyFreeDBPlugin 1.0
#
DISCID=a8104b0d
DTITLE=Paul Carrack - 2000-2020 The Independent Years
DYEAR=2020
DGENRE=Soul
TTITLE0=The Way I'm Feeling Tonight (Shepherd's Bush Empire, London, 2
TTITLE0=000)
TTITLE1=Sunny (Buxton Opera House, 2004)
TTITLE2=Silent Running (on Dangerous Ground) (Shepherd's Bush Empire, 
TTITLE2=London, 2000)
TTITLE3=Satisfy My Soul (Symphony Hall, Birmingham, 2017)
TTITLE4=Life In A Bubble (The Brighton Centre, 2019)
TTITLE5=My Kind (Buxton Opera House, 2004)
TTITLE6=Nick Of Time (Liverpool Philharmonic Hall, 2004)
TTITLE7=Where Did I Go Wrong? (Bonn, Germany, 2005)
TTITLE8=The Only One (Royal Albert Hall, London, 2001)
TTITLE9=The LivingYears (Symphony Hall, Birmingham, 2017)
TTITLE10=Perfect Storm (Cork Opera House, 2019)
TTITLE11=Better Than Nothing (Symphony Hall, Birmingham, 2017)
TTITLE12=Marie (Royal Albert Hall, London, 2001)
EXTD=
EXTT0=
EXTT1=
EXTT2=
EXTT3=
EXTT4=
EXTT5=
EXTT6=
EXTT7=
EXTT8=
EXTT9=
EXTT10=
EXTT11=
EXTT12=
PLAYORDER=
